Coordinates
version=1
nRows=16
nColumns=36
inDegrees=yes

Units are S.I. units (second, meters, Newtons, ...)
If the header above contains a line with 'inDegrees', this indicates whether rotational values are in degrees (yes) or radians (no).

endheader
time	pelvis_tilt	pelvis_list	pelvis_rotation	pelvis_tx	pelvis_ty	pelvis_tz	hip_flexion_r	hip_adduction_r	hip_rotation_r	knee_angle_r	knee_angle_r_beta	ankle_angle_r	subtalar_angle_r	mtp_angle_r	hip_flexion_l	hip_adduction_l	hip_rotation_l	knee_angle_l	knee_angle_l_beta	ankle_angle_l	subtalar_angle_l	mtp_angle_l	lumbar_extension	lumbar_bending	lumbar_rotation	arm_flex_r	arm_add_r	arm_rot_r	elbow_flex_r	pro_sup_r	arm_flex_l	arm_add_l	arm_rot_l	elbow_flex_l	pro_sup_l
      0.00000000	     -0.72335509	      0.84031271	     -9.60691690	      0.83298639	      1.01450134	      0.15163442	      0.33851852	      4.68235246	      5.97402789	      5.37982705	      0.09389570	      5.93839401	    -10.59165427	     -6.28154306	     27.59557192	     -3.75901884	      2.47734801	     23.25157090	      0.40581647	     -0.25289960	    -11.54816156	     -6.28154306	     -6.33663267	      2.89185135	     -4.70118277	     26.79185088	     -0.20735940	     60.70517666	    125.73252256	     74.42453723	     43.50802458	     15.18327701	     68.03503746	    112.73670246	     94.47194583
      0.01666670	     -1.14869901	     -0.47018464	    -11.03274965	      0.83244760	      1.00937428	      0.15197877	      0.66209670	      6.46389665	      9.92716715	      5.67012681	      0.09896238	      6.01442646	    -12.32260908	     -6.72508500	     28.14152028	     -6.13977544	      1.58448745	     21.69310785	      0.37861616	     -0.51536291	     -8.29371384	     -6.72508500	     -6.45961683	      6.00494218	     -0.36461755	     28.84309791	     -3.11467367	     66.38055273	    128.84004363	     93.30786556	     44.39641419	     14.96360651	     68.28395850	    118.78994740	    108.81233522
      0.03333330	     -0.75120844	     -0.03004943	    -12.88679068	      0.83212969	      1.01223543	      0.15448986	      0.22565353	      6.03899486	     11.26072594	      6.00272912	      0.10476739	      6.88645901	    -11.83111269	     -6.91887212	     26.98060148	     -6.62583039	      0.14780524	     19.67346279	      0.34336670	     -2.67213870	     -6.92698774	     -6.91887212	     -6.88248705	      5.79809952	      1.83264984	     28.21618293	     -2.21098484	     65.51810193	    128.93983648	    102.78098421	     45.09893159	     14.39332861	     69.22993005	    120.09864025	    112.50569979
      0.05000000	     -1.17258468	      0.73255743	    -13.66767353	      0.83227727	      1.00800672	      0.15585872	      0.75002604	      5.42097911	     11.44299454	      5.93703632	      0.10362083	      8.45992826	    -10.26357487	     -6.99464609	     26.80668391	     -6.37478484	     -0.27638772	     18.48046229	      0.32254491	     -3.21446947	     -5.88071001	     -6.99464609	     -5.82115435	      5.47725047	      2.35833277	     27.86570894	     -0.97629324	     66.10184019	    127.48168080	    103.88673433	     45.59457602	     13.53098930	     69.19123766	    121.24378441	    112.72420343
      0.06666670	     -1.64352755	      1.31102183	    -14.31469552	      0.83283373	      1.00759247	      0.15663903	      1.26456320	      5.03125103	     12.00645407	      6.01971483	      0.10506384	      9.56016784	     -9.13483620	     -7.11416557	     27.06098039	     -6.18759626	     -0.74194741	     18.52253096	      0.32327915	     -3.18545651	     -4.86055239	     -7.11416557	     -5.01751755	      5.26619637	      3.00063360	     27.40868208	     -0.58064547	     66.16053514	    126.40048135	    105.94762349	     45.93745898	     12.79097061	     68.97610160	    121.92943741	    112.39102210
      0.08333330	     -2.11448931	      1.78452523	    -14.65097898	      0.83253946	      1.00734957	      0.15725579	      2.07246847	      4.81760975	     12.50209065	      6.49355483	      0.11333391	      9.97063609	     -8.94818654	     -7.22510474	     27.59915652	     -5.99826487	     -1.16185501	     19.06509516	      0.33274868	     -3.49667669	     -3.95987501	     -7.22510474	     -4.32185817	      5.23274576	      3.12304804	     27.17092722	     -0.00496987	     66.82234309	    125.43540613	    104.29897474	     46.08289172	     11.97048780	     68.59791341	    122.59462866	    112.11807715
      0.10000000	     -2.53503104	      2.16088948	    -14.98144083	      0.83297008	      1.00727125	      0.15745328	      2.81211403	      4.65635542	     12.77735603	      6.99739927	      0.12212766	     10.27481740	     -8.62618588	     -7.32218536	     28.07896940	     -5.85727224	     -1.59402533	     19.69540809	      0.34374972	     -3.90017039	     -3.30153068	     -7.32218536	     -3.80363674	      5.29957901	      3.34327154	     27.02848949	      0.47383084	     67.33000307	    124.92141308	    104.96840290	     46.24901962	     11.68909736	     68.74224378	    123.13547857	    111.93753269
      0.11666670	     -2.77959588	      2.44163818	    -15.16736030	      0.83935457	      1.00813625	      0.15595474	      3.20878248	      4.51072994	     13.08889666	      7.40897705	      0.12931104	     10.19469274	     -8.70819760	     -7.32526161	     28.13505193	     -5.65486056	     -1.94980460	     20.14173678	      0.35153962	     -4.24249439	     -2.67568926	     -7.32526161	     -3.35096883	      5.38611571	      3.42903856	     26.44575743	      0.59259043	     67.73714922	    124.92332095	    104.98893786	     45.85660054	     11.72744002	     69.04271812	    123.42972063	    111.77168442
      0.13333330	     -3.23091024	      2.53071175	    -15.34130221	      0.83329783	      1.00484693	      0.15776992	      4.11535299	      4.71025452	     13.16580315	      8.19069304	      0.14295456	     10.05557475	     -8.74556391	     -7.32867870	     28.60827349	     -5.79854130	     -2.17376069	     20.63167602	      0.36009068	     -4.52702371	     -2.01022207	     -7.32867870	     -2.92107904	      5.62266291	      3.54089975	     26.59532197	      0.92687576	     67.98511164	    124.76150485	    104.95487438	     46.10696945	     11.61230560	     69.21134493	    123.81507084	    111.53859343
      0.15000000	     -3.56827787	      2.51058668	    -15.46246093	      0.83297617	      1.00717141	      0.15773219	      4.81128559	      4.96957167	     13.37664789	      8.75192551	      0.15274992	      9.48838436	     -8.93846988	     -7.35922272	     28.93916906	     -5.99357050	     -2.31955481	     20.72969411	      0.36180142	     -4.82779747	     -1.41272828	     -7.35922272	     -2.74170289	      5.96214537	      3.47098749	     26.88358618	      1.12404397	     68.56300629	    124.42987501	    102.83955738	     45.94620302	     11.29841217	     69.41221993	    124.14624949	    110.10886591
      0.16666670	     -3.95242592	      2.50432681	    -15.57675932	      0.83350402	      1.00451260	      0.15757169	      5.61437602	      5.20344626	     13.27170168	      9.40335856	      0.16411957	      9.53147873	     -8.56400555	     -7.38190748	     29.31863560	     -6.19725245	     -2.42125373	     20.96424520	      0.36589510	     -4.95222851	     -0.96381842	     -7.38190748	     -2.40754542	      6.24495732	      3.46034761	     27.06430932	      1.37762924	     68.59897280	    124.30921762	    103.06052018	     45.86583011	     11.19084103	     69.25110294	    124.48493735	    110.58565240
      0.18333330	     -4.11459429	      2.42533319	    -15.67596840	      0.83302005	      1.00726437	      0.15791806	      6.04938835	      5.42129869	     13.34250849	      9.77660613	      0.17063397	      9.44304936	     -8.41088332	     -7.39524017	     29.41088920	     -6.43917106	     -2.56597819	     21.11785472	      0.36857610	     -5.19237018	     -0.50796971	     -7.39524017	     -2.44468540	      6.49340415	      3.55476735	     27.16276900	      1.18152305	     68.44526405	    124.04609394	    102.93929735	     45.74693728	     11.04078044	     69.50597283	    124.62065349	    110.49644574
      0.20000000	     -4.25015602	      2.33311684	    -15.69232598	      0.83320150	      1.00516128	      0.15777491	      6.33586369	      5.59235713	     13.28881842	      9.90811998	      0.17292932	      9.46235841	     -7.90592564	     -7.40617731	     29.48648282	     -6.65122978	     -2.78360782	     21.05748202	      0.36752239	     -5.62566552	     -0.22744903	     -7.40617731	     -2.36657389	      6.69602202	      3.48136576	     27.18569397	      1.50915515	     68.76800492	    124.02654008	    103.43085048	     45.78740577	     11.04323143	     68.94325511	    124.49881023	    110.25292956
      0.21666670	     -4.36206497	      2.13588176	    -15.59454974	      0.82654792	      1.00483406	      0.15971886	      6.74079713	      5.91021581	     13.21345290	     10.19757256	      0.17798122	      9.19300662	     -7.78780196	     -7.40657216	     29.51768519	     -6.93849611	     -2.84689731	     20.85405082	      0.36397185	     -5.96242642	     -0.03963260	     -7.40657216	     -2.53460855	      6.84605650	      3.65287586	     27.25827405	      2.00713416	     69.10654637	    124.03034539	    103.46061430	     46.18781011	     10.99190439	     68.70211126	    124.33476428	    110.22500024
      0.23333330	     -4.46383206	      2.00681446	    -15.56576597	      0.83190496	      1.00302663	      0.16281659	      6.92870972	      6.13823071	     13.26976373	     10.18180046	      0.17770594	      9.23936380	     -7.71025268	     -7.40693966	     29.49167854	     -7.16445403	     -2.87802316	     20.58684555	      0.35930824	     -5.94965468	      0.02105273	     -7.40693966	     -2.47743125	      6.85823432	      3.82387590	     27.23737794	      2.25992108	     69.37169662	    123.94799268	    103.48676170	     46.36199856	     10.82100276	     68.42775093	    124.31049987	    110.18277415
      0.25000000	     -4.46507567	      1.92100741	    -15.51832976	      0.83129847	      1.00599092	      0.16285339	      6.84727922	      6.26306201	     13.41704966	      9.97538081	      0.17410324	      9.33298658	     -7.47350807	     -7.41951935	     29.45654138	     -7.32420019	     -3.01554962	     20.52845990	      0.35828922	     -5.78597219	      0.37419277	     -7.41951935	     -2.51238889	      6.92689214	      3.51530432	     27.48347847	      2.59058728	     69.72707800	    122.93253691	    103.48122155	     45.83307308	     10.26213966	     67.90101005	    124.61162728	    109.88386886
